<mxfile host="65bd71144e">
    <diagram name="Page-1" id="113YbZ88T134uzQnZ3Du">
        <mxGraphModel dx="1999" dy="1349" grid="1" gridSize="10" guides="1" tooltips="1" connect="1" arrows="1" fold="1" page="1" pageScale="1" pageWidth="2336" pageHeight="1654" background="none" math="0" shadow="0">
            <root>
                <mxCell id="0"/>
                <mxCell id="1" parent="0"/>
                <mxCell id="Fisk6T6DbjHirBb1iTBB-30" style="edgeStyle=orthogonalEdgeStyle;rounded=0;orthogonalLoop=1;jettySize=auto;html=1;entryX=1;entryY=0.5;entryDx=0;entryDy=0;dashed=1;endSize=6;curved=0;strokeColor=#FF0000;strokeWidth=2;" parent="1" source="DjzMqCNCpp32R4Y7mPO1-84" target="Fisk6T6DbjHirBb1iTBB-7" edge="1">
                    <mxGeometry relative="1" as="geometry">
                        <Array as="points">
                            <mxPoint x="1390" y="847"/>
                        </Array>
                    </mxGeometry>
                </mxCell>
                <mxCell id="DjzMqCNCpp32R4Y7mPO1-39" style="edgeStyle=orthogonalEdgeStyle;rounded=0;orthogonalLoop=1;jettySize=auto;html=1;entryX=0.112;entryY=0.511;entryDx=0;entryDy=0;entryPerimeter=0;" parent="1" source="DjzMqCNCpp32R4Y7mPO1-40" target="10" edge="1">
                    <mxGeometry relative="1" as="geometry">
                        <mxPoint x="877.8499999999999" y="801.9749999999999" as="targetPoint"/>
                        <Array as="points">
                            <mxPoint x="860" y="1172"/>
                            <mxPoint x="860" y="797"/>
                        </Array>
                    </mxGeometry>
                </mxCell>
                <mxCell id="DjzMqCNCpp32R4Y7mPO1-56" style="edgeStyle=orthogonalEdgeStyle;rounded=0;orthogonalLoop=1;jettySize=auto;html=1;" parent="1" source="DjzMqCNCpp32R4Y7mPO1-57" edge="1">
                    <mxGeometry relative="1" as="geometry">
                        <mxPoint x="2068" y="802" as="targetPoint"/>
                    </mxGeometry>
                </mxCell>
                <mxCell id="DjzMqCNCpp32R4Y7mPO1-69" style="edgeStyle=orthogonalEdgeStyle;rounded=0;orthogonalLoop=1;jettySize=auto;html=1;entryX=0;entryY=0.25;entryDx=0;entryDy=0;" parent="1" source="DjzMqCNCpp32R4Y7mPO1-90" target="DjzMqCNCpp32R4Y7mPO1-103" edge="1">
                    <mxGeometry relative="1" as="geometry">
                        <mxPoint x="2068" y="92" as="targetPoint"/>
                        <Array as="points">
                            <mxPoint x="1670" y="632"/>
                            <mxPoint x="1670" y="400"/>
                            <mxPoint x="498" y="400"/>
                        </Array>
                    </mxGeometry>
                </mxCell>
                <mxCell id="DjzMqCNCpp32R4Y7mPO1-98" style="edgeStyle=orthogonalEdgeStyle;rounded=0;orthogonalLoop=1;jettySize=auto;html=1;exitX=1;exitY=0;exitDx=0;exitDy=0;exitPerimeter=0;entryX=0.063;entryY=0.469;entryDx=0;entryDy=0;entryPerimeter=0;" parent="1" source="DjzMqCNCpp32R4Y7mPO1-77" target="DjzMqCNCpp32R4Y7mPO1-43" edge="1">
                    <mxGeometry relative="1" as="geometry">
                        <Array as="points">
                            <mxPoint x="1570" y="932"/>
                        </Array>
                    </mxGeometry>
                </mxCell>
                <mxCell id="DjzMqCNCpp32R4Y7mPO1-103" value="" style="triangle;whiteSpace=wrap;html=1;rotation=90;" parent="1" vertex="1">
                    <mxGeometry x="448" y="542" width="60" height="80" as="geometry"/>
                </mxCell>
                <mxCell id="DjzMqCNCpp32R4Y7mPO1-105" style="edgeStyle=orthogonalEdgeStyle;rounded=0;orthogonalLoop=1;jettySize=auto;html=1;entryX=0;entryY=0.75;entryDx=0;entryDy=0;" parent="1" source="DjzMqCNCpp32R4Y7mPO1-104" target="DjzMqCNCpp32R4Y7mPO1-103" edge="1">
                    <mxGeometry relative="1" as="geometry">
                        <Array as="points">
                            <mxPoint x="458" y="462"/>
                        </Array>
                    </mxGeometry>
                </mxCell>
                <mxCell id="DjzMqCNCpp32R4Y7mPO1-104" value="" style="verticalLabelPosition=bottom;align=center;html=1;verticalAlign=top;pointerEvents=1;dashed=0;shape=mxgraph.pid2valves.valve;valveType=ball" parent="1" vertex="1">
                    <mxGeometry x="398" y="452" width="30" height="20" as="geometry"/>
                </mxCell>
                <mxCell id="DjzMqCNCpp32R4Y7mPO1-106" style="edgeStyle=orthogonalEdgeStyle;rounded=0;orthogonalLoop=1;jettySize=auto;html=1;entryX=0.078;entryY=0.385;entryDx=0;entryDy=0;entryPerimeter=0;" parent="1" source="DjzMqCNCpp32R4Y7mPO1-103" target="9" edge="1">
                    <mxGeometry relative="1" as="geometry">
                        <mxPoint x="508" y="762" as="targetPoint"/>
                        <Array as="points">
                            <mxPoint x="478" y="713"/>
                        </Array>
                    </mxGeometry>
                </mxCell>
                <mxCell id="DjzMqCNCpp32R4Y7mPO1-107" style="edgeStyle=orthogonalEdgeStyle;rounded=0;orthogonalLoop=1;jettySize=auto;html=1;entryX=0.1;entryY=0.48;entryDx=0;entryDy=0;entryPerimeter=0;" parent="1" source="DjzMqCNCpp32R4Y7mPO1-108" target="9" edge="1">
                    <mxGeometry relative="1" as="geometry">
                        <mxPoint x="507.5500000000002" y="812.115" as="targetPoint"/>
                    </mxGeometry>
                </mxCell>
                <mxCell id="DjzMqCNCpp32R4Y7mPO1-108" value="" style="verticalLabelPosition=bottom;align=center;html=1;verticalAlign=top;pointerEvents=1;dashed=0;shape=mxgraph.pid2valves.valve;valveType=ball" parent="1" vertex="1">
                    <mxGeometry x="398" y="802" width="30" height="20" as="geometry"/>
                </mxCell>
                <mxCell id="DjzMqCNCpp32R4Y7mPO1-112" value="" style="edgeStyle=orthogonalEdgeStyle;rounded=0;orthogonalLoop=1;jettySize=auto;html=1;exitX=0.929;exitY=0.343;exitDx=0;exitDy=0;exitPerimeter=0;" parent="1" source="10" target="DjzMqCNCpp32R4Y7mPO1-81" edge="1">
                    <mxGeometry relative="1" as="geometry">
                        <mxPoint x="1028" y="762" as="sourcePoint"/>
                    </mxGeometry>
                </mxCell>
                <mxCell id="DjzMqCNCpp32R4Y7mPO1-113" style="edgeStyle=orthogonalEdgeStyle;rounded=0;orthogonalLoop=1;jettySize=auto;html=1;entryX=0.098;entryY=0.333;entryDx=0;entryDy=0;entryPerimeter=0;" parent="1" source="DjzMqCNCpp32R4Y7mPO1-114" target="10" edge="1">
                    <mxGeometry relative="1" as="geometry">
                        <mxPoint x="870" y="760" as="targetPoint"/>
                        <Array as="points">
                            <mxPoint x="810" y="760"/>
                            <mxPoint x="810" y="760"/>
                        </Array>
                    </mxGeometry>
                </mxCell>
                <mxCell id="DjzMqCNCpp32R4Y7mPO1-114" value="" style="verticalLabelPosition=bottom;align=center;html=1;verticalAlign=top;pointerEvents=1;dashed=0;shape=mxgraph.pid2valves.valve;valveType=ball" parent="1" vertex="1">
                    <mxGeometry x="748" y="752" width="30" height="20" as="geometry"/>
                </mxCell>
                <mxCell id="DjzMqCNCpp32R4Y7mPO1-122" style="edgeStyle=orthogonalEdgeStyle;rounded=0;orthogonalLoop=1;jettySize=auto;html=1;entryX=0;entryY=0.5;entryDx=0;entryDy=0;entryPerimeter=0;exitX=0.928;exitY=0.507;exitDx=0;exitDy=0;exitPerimeter=0;" parent="1" source="9" target="DjzMqCNCpp32R4Y7mPO1-114" edge="1">
                    <mxGeometry relative="1" as="geometry">
                        <mxPoint x="658" y="762" as="sourcePoint"/>
                    </mxGeometry>
                </mxCell>
                <mxCell id="DjzMqCNCpp32R4Y7mPO1-125" value="" style="endArrow=classic;html=1;rounded=0;entryX=-0.1;entryY=0.643;entryDx=0;entryDy=0;entryPerimeter=0;" parent="1" edge="1">
                    <mxGeometry width="50" height="50" relative="1" as="geometry">
                        <mxPoint x="268" y="462" as="sourcePoint"/>
                        <mxPoint x="398" y="461.71000000000015" as="targetPoint"/>
                    </mxGeometry>
                </mxCell>
                <mxCell id="DjzMqCNCpp32R4Y7mPO1-126" value="" style="endArrow=classic;html=1;rounded=0;entryX=-0.1;entryY=0.643;entryDx=0;entryDy=0;entryPerimeter=0;" parent="1" edge="1">
                    <mxGeometry width="50" height="50" relative="1" as="geometry">
                        <mxPoint x="278" y="812" as="sourcePoint"/>
                        <mxPoint x="398" y="811.7100000000002" as="targetPoint"/>
                    </mxGeometry>
                </mxCell>
                <mxCell id="raOoSxsyEfahjdPdxXgE-6" value="" style="verticalLabelPosition=bottom;align=center;html=1;verticalAlign=top;pointerEvents=1;dashed=0;shape=mxgraph.pid2valves.valve;valveType=ball" parent="1" vertex="1">
                    <mxGeometry x="700" y="690" width="30" height="20" as="geometry"/>
                </mxCell>
                <mxCell id="raOoSxsyEfahjdPdxXgE-8" value="&lt;font style=&quot;font-size: 20px;&quot;&gt;FC&lt;/font&gt;" style="ellipse;whiteSpace=wrap;html=1;" parent="1" vertex="1">
                    <mxGeometry x="743" y="802" width="40" height="40" as="geometry"/>
                </mxCell>
                <mxCell id="raOoSxsyEfahjdPdxXgE-9" value="&lt;font style=&quot;font-size: 20px;&quot;&gt;X&lt;/font&gt;" style="ellipse;whiteSpace=wrap;html=1;" parent="1" vertex="1">
                    <mxGeometry x="670" y="890" width="40" height="40" as="geometry"/>
                </mxCell>
                <mxCell id="raOoSxsyEfahjdPdxXgE-16" style="edgeStyle=orthogonalEdgeStyle;rounded=0;orthogonalLoop=1;jettySize=auto;html=1;entryX=1;entryY=0.5;entryDx=0;entryDy=0;" parent="1" source="raOoSxsyEfahjdPdxXgE-10" target="raOoSxsyEfahjdPdxXgE-9" edge="1">
                    <mxGeometry relative="1" as="geometry">
                        <mxPoint x="778.5" y="920" as="targetPoint"/>
                    </mxGeometry>
                </mxCell>
                <mxCell id="raOoSxsyEfahjdPdxXgE-10" value="&lt;font style=&quot;font-size: 20px;&quot;&gt;LC&lt;/font&gt;" style="ellipse;whiteSpace=wrap;html=1;" parent="1" vertex="1">
                    <mxGeometry x="743" y="890" width="40" height="40" as="geometry"/>
                </mxCell>
                <mxCell id="raOoSxsyEfahjdPdxXgE-14" style="edgeStyle=orthogonalEdgeStyle;rounded=0;orthogonalLoop=1;jettySize=auto;html=1;entryX=0.492;entryY=0.915;entryDx=0;entryDy=0;entryPerimeter=0;dashed=1;dashPattern=8 8;fillColor=#f8cecc;strokeColor=#FF231A;strokeWidth=2;" parent="1" source="raOoSxsyEfahjdPdxXgE-8" target="DjzMqCNCpp32R4Y7mPO1-114" edge="1">
                    <mxGeometry relative="1" as="geometry">
                        <mxPoint x="760" y="770" as="targetPoint"/>
                    </mxGeometry>
                </mxCell>
                <mxCell id="raOoSxsyEfahjdPdxXgE-27" value="&lt;font style=&quot;font-size: 20px;&quot;&gt;FC&lt;/font&gt;" style="ellipse;whiteSpace=wrap;html=1;" parent="1" vertex="1">
                    <mxGeometry x="393" y="842" width="40" height="40" as="geometry"/>
                </mxCell>
                <mxCell id="raOoSxsyEfahjdPdxXgE-28" value="&lt;font style=&quot;font-size: 20px;&quot;&gt;X&lt;/font&gt;" style="ellipse;whiteSpace=wrap;html=1;" parent="1" vertex="1">
                    <mxGeometry x="393" y="340" width="40" height="40" as="geometry"/>
                </mxCell>
                <mxCell id="raOoSxsyEfahjdPdxXgE-29" value="&lt;font style=&quot;font-size: 20px;&quot;&gt;FC&lt;/font&gt;" style="ellipse;whiteSpace=wrap;html=1;" parent="1" vertex="1">
                    <mxGeometry x="393" y="400" width="40" height="40" as="geometry"/>
                </mxCell>
                <mxCell id="raOoSxsyEfahjdPdxXgE-30" value="&lt;font style=&quot;font-size: 20px;&quot;&gt;LS&lt;/font&gt;" style="ellipse;whiteSpace=wrap;html=1;" parent="1" vertex="1">
                    <mxGeometry x="1210" y="452" width="40" height="40" as="geometry"/>
                </mxCell>
                <mxCell id="raOoSxsyEfahjdPdxXgE-34" value="&lt;font style=&quot;font-size: 20px;&quot;&gt;TC&lt;/font&gt;" style="ellipse;whiteSpace=wrap;html=1;" parent="1" vertex="1">
                    <mxGeometry x="695" y="624.5" width="40" height="40" as="geometry"/>
                </mxCell>
                <mxCell id="raOoSxsyEfahjdPdxXgE-35" style="edgeStyle=orthogonalEdgeStyle;rounded=0;orthogonalLoop=1;jettySize=auto;html=1;entryX=0;entryY=0.5;entryDx=0;entryDy=0;" parent="1" source="raOoSxsyEfahjdPdxXgE-30" target="raOoSxsyEfahjdPdxXgE-31" edge="1">
                    <mxGeometry relative="1" as="geometry">
                        <mxPoint x="1341" y="630" as="targetPoint"/>
                        <Array as="points">
                            <mxPoint x="1260" y="472"/>
                            <mxPoint x="1260" y="580"/>
                            <mxPoint x="1322" y="580"/>
                        </Array>
                    </mxGeometry>
                </mxCell>
                <mxCell id="raOoSxsyEfahjdPdxXgE-39" value="&lt;span style=&quot;font-size: 20px;&quot;&gt;PC&lt;/span&gt;" style="ellipse;whiteSpace=wrap;html=1;" parent="1" vertex="1">
                    <mxGeometry x="1490" y="462" width="40" height="40" as="geometry"/>
                </mxCell>
                <mxCell id="raOoSxsyEfahjdPdxXgE-37" value="" style="verticalLabelPosition=bottom;align=center;html=1;verticalAlign=top;pointerEvents=1;dashed=0;shape=mxgraph.pid2valves.valve;valveType=ball" parent="1" vertex="1">
                    <mxGeometry x="1370" y="472" width="30" height="20" as="geometry"/>
                </mxCell>
                <mxCell id="raOoSxsyEfahjdPdxXgE-47" style="edgeStyle=orthogonalEdgeStyle;rounded=0;orthogonalLoop=1;jettySize=auto;html=1;entryX=0.5;entryY=1;entryDx=0;entryDy=0;" parent="1" source="DjzMqCNCpp32R4Y7mPO1-73" target="raOoSxsyEfahjdPdxXgE-39" edge="1">
                    <mxGeometry relative="1" as="geometry"/>
                </mxCell>
                <mxCell id="raOoSxsyEfahjdPdxXgE-48" style="edgeStyle=orthogonalEdgeStyle;rounded=0;orthogonalLoop=1;jettySize=auto;html=1;entryX=1;entryY=0.5;entryDx=0;entryDy=0;entryPerimeter=0;" parent="1" source="raOoSxsyEfahjdPdxXgE-39" target="raOoSxsyEfahjdPdxXgE-37" edge="1">
                    <mxGeometry relative="1" as="geometry"/>
                </mxCell>
                <mxCell id="raOoSxsyEfahjdPdxXgE-49" style="edgeStyle=orthogonalEdgeStyle;rounded=0;orthogonalLoop=1;jettySize=auto;html=1;entryX=0.5;entryY=0.124;entryDx=0;entryDy=0;entryPerimeter=0;" parent="1" source="raOoSxsyEfahjdPdxXgE-37" target="raOoSxsyEfahjdPdxXgE-40" edge="1">
                    <mxGeometry relative="1" as="geometry"/>
                </mxCell>
                <mxCell id="Fisk6T6DbjHirBb1iTBB-10" value="&lt;font style=&quot;font-size: 20px;&quot;&gt;LC&lt;/font&gt;" style="ellipse;whiteSpace=wrap;html=1;" parent="1" vertex="1">
                    <mxGeometry x="1485" y="1060" width="40" height="40" as="geometry"/>
                </mxCell>
                <mxCell id="Fisk6T6DbjHirBb1iTBB-40" value="" style="edgeStyle=none;orthogonalLoop=1;jettySize=auto;html=1;rounded=0;entryX=1;entryY=0.5;entryDx=0;entryDy=0;" parent="1" target="Fisk6T6DbjHirBb1iTBB-36" edge="1">
                    <mxGeometry width="100" relative="1" as="geometry">
                        <mxPoint x="2000" y="990" as="sourcePoint"/>
                        <mxPoint x="2050" y="1010" as="targetPoint"/>
                        <Array as="points"/>
                    </mxGeometry>
                </mxCell>
                <mxCell id="Fisk6T6DbjHirBb1iTBB-41" value="V_2max" style="edgeLabel;html=1;align=center;verticalAlign=middle;resizable=0;points=[];" parent="Fisk6T6DbjHirBb1iTBB-40" vertex="1" connectable="0">
                    <mxGeometry x="-0.6728" relative="1" as="geometry">
                        <mxPoint as="offset"/>
                    </mxGeometry>
                </mxCell>
                <mxCell id="Fisk6T6DbjHirBb1iTBB-47" value="0.1%-x_Bz^D2" style="edgeStyle=none;orthogonalLoop=1;jettySize=auto;html=1;rounded=0;" parent="1" edge="1">
                    <mxGeometry width="100" relative="1" as="geometry">
                        <mxPoint x="1800" y="910" as="sourcePoint"/>
                        <mxPoint x="1800" y="880" as="targetPoint"/>
                        <Array as="points"/>
                    </mxGeometry>
                </mxCell>
                <mxCell id="Fisk6T6DbjHirBb1iTBB-69" value="&lt;font style=&quot;font-size: 20px;&quot;&gt;LC&lt;/font&gt;" style="ellipse;whiteSpace=wrap;html=1;" parent="1" vertex="1">
                    <mxGeometry x="330" y="680" width="40" height="40" as="geometry"/>
                </mxCell>
                <mxCell id="Fisk6T6DbjHirBb1iTBB-72" value="" style="edgeStyle=none;orthogonalLoop=1;jettySize=auto;html=1;rounded=0;entryX=0;entryY=0;entryDx=0;entryDy=0;" parent="1" target="Fisk6T6DbjHirBb1iTBB-69" edge="1">
                    <mxGeometry width="100" relative="1" as="geometry">
                        <mxPoint x="270" y="650" as="sourcePoint"/>
                        <mxPoint x="250" y="640" as="targetPoint"/>
                        <Array as="points"/>
                    </mxGeometry>
                </mxCell>
                <mxCell id="Fisk6T6DbjHirBb1iTBB-73" value="U_1MAX" style="edgeLabel;html=1;align=center;verticalAlign=middle;resizable=0;points=[];" parent="Fisk6T6DbjHirBb1iTBB-72" vertex="1" connectable="0">
                    <mxGeometry x="-0.2119" y="2" relative="1" as="geometry">
                        <mxPoint as="offset"/>
                    </mxGeometry>
                </mxCell>
                <mxCell id="Fisk6T6DbjHirBb1iTBB-77" value="" style="edgeStyle=none;orthogonalLoop=1;jettySize=auto;html=1;rounded=0;exitX=0.5;exitY=1;exitDx=0;exitDy=0;entryX=0.505;entryY=0.165;entryDx=0;entryDy=0;entryPerimeter=0;" parent="1" source="raOoSxsyEfahjdPdxXgE-34" target="raOoSxsyEfahjdPdxXgE-6" edge="1">
                    <mxGeometry width="100" relative="1" as="geometry">
                        <mxPoint x="710" y="660" as="sourcePoint"/>
                        <mxPoint x="810" y="660" as="targetPoint"/>
                        <Array as="points"/>
                    </mxGeometry>
                </mxCell>
                <mxCell id="Fisk6T6DbjHirBb1iTBB-78" value="T_Rxr1 MAX" style="edgeStyle=none;orthogonalLoop=1;jettySize=auto;html=1;rounded=0;entryX=0.5;entryY=0;entryDx=0;entryDy=0;" parent="1" target="raOoSxsyEfahjdPdxXgE-34" edge="1">
                    <mxGeometry width="100" relative="1" as="geometry">
                        <mxPoint x="660" y="580" as="sourcePoint"/>
                        <mxPoint x="760" y="540" as="targetPoint"/>
                        <Array as="points"/>
                    </mxGeometry>
                </mxCell>
                <mxCell id="Fisk6T6DbjHirBb1iTBB-85" value="" style="edgeStyle=none;orthogonalLoop=1;jettySize=auto;html=1;rounded=0;entryX=0;entryY=0;entryDx=0;entryDy=0;" parent="1" target="raOoSxsyEfahjdPdxXgE-32" edge="1">
                    <mxGeometry width="100" relative="1" as="geometry">
                        <mxPoint x="1060" y="580" as="sourcePoint"/>
                        <mxPoint x="1100" y="560" as="targetPoint"/>
                        <Array as="points"/>
                    </mxGeometry>
                </mxCell>
                <mxCell id="Fisk6T6DbjHirBb1iTBB-86" value="x_Bz^D2" style="edgeLabel;html=1;align=center;verticalAlign=middle;resizable=0;points=[];" parent="Fisk6T6DbjHirBb1iTBB-85" vertex="1" connectable="0">
                    <mxGeometry x="-0.2498" y="-2" relative="1" as="geometry">
                        <mxPoint as="offset"/>
                    </mxGeometry>
                </mxCell>
                <mxCell id="5cSPQk3kY59FuRHNvhS5-1" value="&lt;font style=&quot;font-size: 20px;&quot;&gt;X&lt;/font&gt;" style="ellipse;whiteSpace=wrap;html=1;" parent="1" vertex="1">
                    <mxGeometry x="1138" y="452" width="40" height="40" as="geometry"/>
                </mxCell>
                <mxCell id="Fisk6T6DbjHirBb1iTBB-87" value="[L1/F_col1]sp" style="edgeStyle=none;orthogonalLoop=1;jettySize=auto;html=1;rounded=0;entryX=0.5;entryY=0;entryDx=0;entryDy=0;" parent="1" target="5cSPQk3kY59FuRHNvhS5-1" edge="1">
                    <mxGeometry width="100" relative="1" as="geometry">
                        <mxPoint x="1190" y="410" as="sourcePoint"/>
                        <mxPoint x="1240" y="440" as="targetPoint"/>
                        <Array as="points"/>
                    </mxGeometry>
                </mxCell>
                <mxCell id="Fisk6T6DbjHirBb1iTBB-98" style="edgeStyle=orthogonalEdgeStyle;rounded=0;orthogonalLoop=1;jettySize=auto;html=1;entryX=0;entryY=0.5;entryDx=0;entryDy=0;dashed=1;strokeColor=#FF0000;strokeWidth=2;" parent="1" source="DjzMqCNCpp32R4Y7mPO1-71" target="5cSPQk3kY59FuRHNvhS5-2" edge="1">
                    <mxGeometry relative="1" as="geometry">
                        <Array as="points">
                            <mxPoint x="1426" y="880"/>
                            <mxPoint x="1426" y="860"/>
                        </Array>
                    </mxGeometry>
                </mxCell>
                <mxCell id="DjzMqCNCpp32R4Y7mPO1-71" value="" style="verticalLabelPosition=bottom;outlineConnect=0;align=center;dashed=0;html=1;verticalAlign=top;shape=mxgraph.pid2misc.column;columnType=tray" parent="1" vertex="1">
                    <mxGeometry x="1178" y="612" width="110" height="300" as="geometry"/>
                </mxCell>
                <mxCell id="DjzMqCNCpp32R4Y7mPO1-72" style="edgeStyle=orthogonalEdgeStyle;rounded=0;orthogonalLoop=1;jettySize=auto;html=1;" parent="1" target="DjzMqCNCpp32R4Y7mPO1-77" edge="1">
                    <mxGeometry relative="1" as="geometry">
                        <Array as="points">
                            <mxPoint x="1458" y="952"/>
                            <mxPoint x="1458" y="952"/>
                        </Array>
                        <mxPoint x="1418" y="952" as="sourcePoint"/>
                    </mxGeometry>
                </mxCell>
                <mxCell id="Fisk6T6DbjHirBb1iTBB-63" style="edgeStyle=orthogonalEdgeStyle;rounded=0;orthogonalLoop=1;jettySize=auto;html=1;entryX=0.5;entryY=0;entryDx=0;entryDy=0;" parent="1" source="DjzMqCNCpp32R4Y7mPO1-73" target="Fisk6T6DbjHirBb1iTBB-61" edge="1">
                    <mxGeometry relative="1" as="geometry"/>
                </mxCell>
                <mxCell id="DjzMqCNCpp32R4Y7mPO1-73" value="" style="shape=mxgraph.pid.vessels.pressurized_vessel;html=1;pointerEvents=1;align=center;verticalLabelPosition=bottom;verticalAlign=top;dashed=0;" parent="1" vertex="1">
                    <mxGeometry x="1390" y="510" width="80" height="60" as="geometry"/>
                </mxCell>
                <mxCell id="DjzMqCNCpp32R4Y7mPO1-74" style="edgeStyle=orthogonalEdgeStyle;rounded=0;orthogonalLoop=1;jettySize=auto;html=1;entryX=0.124;entryY=0.5;entryDx=0;entryDy=0;entryPerimeter=0;" parent="1" source="DjzMqCNCpp32R4Y7mPO1-71" target="raOoSxsyEfahjdPdxXgE-40" edge="1">
                    <mxGeometry relative="1" as="geometry">
                        <mxPoint x="1280" y="500" as="targetPoint"/>
                        <Array as="points">
                            <mxPoint x="1233" y="540"/>
                        </Array>
                    </mxGeometry>
                </mxCell>
                <mxCell id="DjzMqCNCpp32R4Y7mPO1-77" value="" style="verticalLabelPosition=bottom;outlineConnect=0;align=center;dashed=0;html=1;verticalAlign=top;shape=mxgraph.pid.compressors.centrifugal_compressor" parent="1" vertex="1">
                    <mxGeometry x="1478" y="932" width="40" height="40" as="geometry"/>
                </mxCell>
                <mxCell id="DjzMqCNCpp32R4Y7mPO1-80" style="edgeStyle=orthogonalEdgeStyle;rounded=0;orthogonalLoop=1;jettySize=auto;html=1;" parent="1" source="DjzMqCNCpp32R4Y7mPO1-81" target="DjzMqCNCpp32R4Y7mPO1-71" edge="1">
                    <mxGeometry relative="1" as="geometry"/>
                </mxCell>
                <mxCell id="DjzMqCNCpp32R4Y7mPO1-81" value="" style="verticalLabelPosition=bottom;align=center;html=1;verticalAlign=top;pointerEvents=1;dashed=0;shape=mxgraph.pid2valves.valve;valveType=ball" parent="1" vertex="1">
                    <mxGeometry x="1108" y="752" width="30" height="20" as="geometry"/>
                </mxCell>
                <mxCell id="DjzMqCNCpp32R4Y7mPO1-84" value="" style="shape=mxgraph.pid.heat_exchangers.reboiler;html=1;pointerEvents=1;align=center;verticalLabelPosition=bottom;verticalAlign=top;dashed=0;" parent="1" vertex="1">
                    <mxGeometry x="1340" y="927" width="110" height="50" as="geometry"/>
                </mxCell>
                <mxCell id="DjzMqCNCpp32R4Y7mPO1-88" value="" style="verticalLabelPosition=bottom;outlineConnect=0;align=center;dashed=0;html=1;verticalAlign=top;shape=mxgraph.pid.compressors.centrifugal_compressor;rotation=90;" parent="1" vertex="1">
                    <mxGeometry x="1420" y="592" width="30" height="30" as="geometry"/>
                </mxCell>
                <mxCell id="DjzMqCNCpp32R4Y7mPO1-89" value="" style="verticalLabelPosition=bottom;align=center;html=1;verticalAlign=top;pointerEvents=1;dashed=0;shape=mxgraph.pid2valves.valve;valveType=ball" parent="1" vertex="1">
                    <mxGeometry x="1327" y="622" width="30" height="20" as="geometry"/>
                </mxCell>
                <mxCell id="DjzMqCNCpp32R4Y7mPO1-90" value="" style="verticalLabelPosition=bottom;align=center;html=1;verticalAlign=top;pointerEvents=1;dashed=0;shape=mxgraph.pid2valves.valve;valveType=ball" parent="1" vertex="1">
                    <mxGeometry x="1488" y="622" width="30" height="20" as="geometry"/>
                </mxCell>
                <mxCell id="DjzMqCNCpp32R4Y7mPO1-91" value="" style="endArrow=classic;html=1;rounded=0;exitX=-0.014;exitY=0.443;exitDx=0;exitDy=0;exitPerimeter=0;" parent="1" source="DjzMqCNCpp32R4Y7mPO1-89" edge="1">
                    <mxGeometry width="50" height="50" relative="1" as="geometry">
                        <mxPoint x="1315.3" y="631.1500000000001" as="sourcePoint"/>
                        <mxPoint x="1288" y="630.8600000000001" as="targetPoint"/>
                    </mxGeometry>
                </mxCell>
                <mxCell id="DjzMqCNCpp32R4Y7mPO1-93" style="edgeStyle=orthogonalEdgeStyle;rounded=0;orthogonalLoop=1;jettySize=auto;html=1;entryX=0.993;entryY=0.5;entryDx=0;entryDy=0;entryPerimeter=0;exitX=1;exitY=0;exitDx=0;exitDy=0;exitPerimeter=0;" parent="1" source="DjzMqCNCpp32R4Y7mPO1-88" target="DjzMqCNCpp32R4Y7mPO1-89" edge="1">
                    <mxGeometry relative="1" as="geometry">
                        <mxPoint x="1518" y="662" as="targetPoint"/>
                        <mxPoint x="1428" y="632" as="sourcePoint"/>
                        <Array as="points">
                            <mxPoint x="1450" y="632"/>
                        </Array>
                    </mxGeometry>
                </mxCell>
                <mxCell id="DjzMqCNCpp32R4Y7mPO1-94" value="" style="endArrow=classic;html=1;rounded=0;entryX=-0.012;entryY=0.504;entryDx=0;entryDy=0;entryPerimeter=0;" parent="1" target="DjzMqCNCpp32R4Y7mPO1-90" edge="1">
                    <mxGeometry width="50" height="50" relative="1" as="geometry">
                        <mxPoint x="1438" y="632" as="sourcePoint"/>
                        <mxPoint x="1578" y="662" as="targetPoint"/>
                    </mxGeometry>
                </mxCell>
                <mxCell id="DjzMqCNCpp32R4Y7mPO1-95" style="edgeStyle=orthogonalEdgeStyle;rounded=0;orthogonalLoop=1;jettySize=auto;html=1;entryX=0.01;entryY=0.5;entryDx=0;entryDy=0;entryPerimeter=0;" parent="1" target="DjzMqCNCpp32R4Y7mPO1-88" edge="1">
                    <mxGeometry relative="1" as="geometry">
                        <mxPoint x="1435" y="572" as="sourcePoint"/>
                        <Array as="points">
                            <mxPoint x="1435" y="582"/>
                            <mxPoint x="1435" y="582"/>
                        </Array>
                    </mxGeometry>
                </mxCell>
                <mxCell id="raOoSxsyEfahjdPdxXgE-33" value="&lt;font style=&quot;font-size: 20px;&quot;&gt;TC&lt;/font&gt;" style="ellipse;whiteSpace=wrap;html=1;" parent="1" vertex="1">
                    <mxGeometry x="1103" y="690" width="40" height="40" as="geometry"/>
                </mxCell>
                <mxCell id="raOoSxsyEfahjdPdxXgE-32" value="&lt;font style=&quot;font-size: 20px;&quot;&gt;CC&lt;/font&gt;" style="ellipse;whiteSpace=wrap;html=1;" parent="1" vertex="1">
                    <mxGeometry x="1103" y="622" width="40" height="40" as="geometry"/>
                </mxCell>
                <mxCell id="raOoSxsyEfahjdPdxXgE-40" value="" style="shape=mxgraph.pid.heat_exchangers.condenser;html=1;pointerEvents=1;align=center;verticalLabelPosition=bottom;verticalAlign=top;dashed=0;movable=1;resizable=1;rotatable=1;deletable=1;editable=1;locked=0;connectable=1;" parent="1" vertex="1">
                    <mxGeometry x="1280" y="510" width="60" height="60" as="geometry"/>
                </mxCell>
                <mxCell id="raOoSxsyEfahjdPdxXgE-41" style="edgeStyle=orthogonalEdgeStyle;rounded=0;orthogonalLoop=1;jettySize=auto;html=1;entryX=-0.021;entryY=0.494;entryDx=0;entryDy=0;entryPerimeter=0;" parent="1" source="raOoSxsyEfahjdPdxXgE-40" target="DjzMqCNCpp32R4Y7mPO1-73" edge="1">
                    <mxGeometry relative="1" as="geometry"/>
                </mxCell>
                <mxCell id="raOoSxsyEfahjdPdxXgE-31" value="&lt;font style=&quot;font-size: 20px;&quot;&gt;FC&lt;/font&gt;" style="ellipse;whiteSpace=wrap;html=1;" parent="1" vertex="1">
                    <mxGeometry x="1322" y="560" width="40" height="40" as="geometry"/>
                </mxCell>
                <mxCell id="Fisk6T6DbjHirBb1iTBB-8" value="" style="shape=mxgraph.pid.heat_exchangers.heater;html=1;pointerEvents=1;align=center;verticalLabelPosition=bottom;verticalAlign=top;dashed=0;" parent="1" vertex="1">
                    <mxGeometry x="1250" y="932" width="60" height="60" as="geometry"/>
                </mxCell>
                <mxCell id="Fisk6T6DbjHirBb1iTBB-7" value="&lt;font style=&quot;font-size: 20px;&quot;&gt;FC&lt;/font&gt;" style="ellipse;whiteSpace=wrap;html=1;" parent="1" vertex="1">
                    <mxGeometry x="1330" y="827" width="40" height="40" as="geometry"/>
                </mxCell>
                <mxCell id="Fisk6T6DbjHirBb1iTBB-29" value="" style="verticalLabelPosition=bottom;align=center;html=1;verticalAlign=top;pointerEvents=1;dashed=0;shape=mxgraph.pid2valves.valve;valveType=ball;rotation=0;" parent="1" vertex="1">
                    <mxGeometry x="1295" y="920" width="30" height="20" as="geometry"/>
                </mxCell>
                <mxCell id="Fisk6T6DbjHirBb1iTBB-61" value="&lt;span style=&quot;font-size: 20px;&quot;&gt;LC&lt;/span&gt;" style="ellipse;whiteSpace=wrap;html=1;" parent="1" vertex="1">
                    <mxGeometry x="1483" y="560" width="40" height="40" as="geometry"/>
                </mxCell>
                <mxCell id="Fisk6T6DbjHirBb1iTBB-64" style="edgeStyle=orthogonalEdgeStyle;rounded=0;orthogonalLoop=1;jettySize=auto;html=1;entryX=0.507;entryY=0.26;entryDx=0;entryDy=0;entryPerimeter=0;" parent="1" source="Fisk6T6DbjHirBb1iTBB-61" target="DjzMqCNCpp32R4Y7mPO1-90" edge="1">
                    <mxGeometry relative="1" as="geometry"/>
                </mxCell>
                <mxCell id="Fisk6T6DbjHirBb1iTBB-89" style="edgeStyle=orthogonalEdgeStyle;rounded=0;orthogonalLoop=1;jettySize=auto;html=1;entryX=0.513;entryY=0.2;entryDx=0;entryDy=0;entryPerimeter=0;" parent="1" source="raOoSxsyEfahjdPdxXgE-31" target="DjzMqCNCpp32R4Y7mPO1-89" edge="1">
                    <mxGeometry relative="1" as="geometry"/>
                </mxCell>
                <mxCell id="DjzMqCNCpp32R4Y7mPO1-32" value="" style="verticalLabelPosition=bottom;outlineConnect=0;align=center;dashed=0;html=1;verticalAlign=top;shape=mxgraph.pid2misc.column;columnType=tray" parent="1" vertex="1">
                    <mxGeometry x="1638" y="782" width="110" height="300" as="geometry"/>
                </mxCell>
                <mxCell id="DjzMqCNCpp32R4Y7mPO1-41" style="edgeStyle=orthogonalEdgeStyle;rounded=0;orthogonalLoop=1;jettySize=auto;html=1;exitX=1;exitY=0;exitDx=0;exitDy=0;exitPerimeter=0;entryX=1;entryY=0.6;entryDx=0;entryDy=0;entryPerimeter=0;" parent="1" target="DjzMqCNCpp32R4Y7mPO1-40" edge="1">
                    <mxGeometry relative="1" as="geometry">
                        <mxPoint x="1424" y="1172" as="targetPoint"/>
                        <mxPoint x="1978" y="1102" as="sourcePoint"/>
                        <Array as="points">
                            <mxPoint x="1978" y="1100"/>
                            <mxPoint x="2000" y="1100"/>
                            <mxPoint x="2000" y="1220"/>
                            <mxPoint x="1620" y="1220"/>
                            <mxPoint x="1620" y="1172"/>
                        </Array>
                    </mxGeometry>
                </mxCell>
                <mxCell id="DjzMqCNCpp32R4Y7mPO1-42" style="edgeStyle=orthogonalEdgeStyle;rounded=0;orthogonalLoop=1;jettySize=auto;html=1;" parent="1" source="DjzMqCNCpp32R4Y7mPO1-43" target="DjzMqCNCpp32R4Y7mPO1-32" edge="1">
                    <mxGeometry relative="1" as="geometry"/>
                </mxCell>
                <mxCell id="DjzMqCNCpp32R4Y7mPO1-43" value="" style="verticalLabelPosition=bottom;align=center;html=1;verticalAlign=top;pointerEvents=1;dashed=0;shape=mxgraph.pid2valves.valve;valveType=ball" parent="1" vertex="1">
                    <mxGeometry x="1568" y="922" width="30" height="20" as="geometry"/>
                </mxCell>
                <mxCell id="DjzMqCNCpp32R4Y7mPO1-54" value="" style="verticalLabelPosition=bottom;outlineConnect=0;align=center;dashed=0;html=1;verticalAlign=top;shape=mxgraph.pid.compressors.centrifugal_compressor;rotation=90;" parent="1" vertex="1">
                    <mxGeometry x="1868" y="762" width="30" height="30" as="geometry"/>
                </mxCell>
                <mxCell id="Fisk6T6DbjHirBb1iTBB-84" style="edgeStyle=orthogonalEdgeStyle;rounded=0;orthogonalLoop=1;jettySize=auto;html=1;" parent="1" source="DjzMqCNCpp32R4Y7mPO1-55" target="DjzMqCNCpp32R4Y7mPO1-32" edge="1">
                    <mxGeometry relative="1" as="geometry">
                        <Array as="points">
                            <mxPoint x="1770" y="802"/>
                            <mxPoint x="1770" y="802"/>
                        </Array>
                    </mxGeometry>
                </mxCell>
                <mxCell id="DjzMqCNCpp32R4Y7mPO1-55" value="" style="verticalLabelPosition=bottom;align=center;html=1;verticalAlign=top;pointerEvents=1;dashed=0;shape=mxgraph.pid2valves.valve;valveType=ball" parent="1" vertex="1">
                    <mxGeometry x="1787" y="792" width="30" height="20" as="geometry"/>
                </mxCell>
                <mxCell id="DjzMqCNCpp32R4Y7mPO1-57" value="" style="verticalLabelPosition=bottom;align=center;html=1;verticalAlign=top;pointerEvents=1;dashed=0;shape=mxgraph.pid2valves.valve;valveType=ball" parent="1" vertex="1">
                    <mxGeometry x="1958" y="792" width="30" height="20" as="geometry"/>
                </mxCell>
                <mxCell id="DjzMqCNCpp32R4Y7mPO1-60" style="edgeStyle=orthogonalEdgeStyle;rounded=0;orthogonalLoop=1;jettySize=auto;html=1;entryX=0.993;entryY=0.5;entryDx=0;entryDy=0;entryPerimeter=0;exitX=1;exitY=0;exitDx=0;exitDy=0;exitPerimeter=0;" parent="1" source="DjzMqCNCpp32R4Y7mPO1-54" target="DjzMqCNCpp32R4Y7mPO1-55" edge="1">
                    <mxGeometry relative="1" as="geometry">
                        <mxPoint x="1978" y="832" as="targetPoint"/>
                        <mxPoint x="1888" y="802" as="sourcePoint"/>
                        <Array as="points">
                            <mxPoint x="1898" y="802"/>
                        </Array>
                    </mxGeometry>
                </mxCell>
                <mxCell id="DjzMqCNCpp32R4Y7mPO1-61" value="" style="endArrow=classic;html=1;rounded=0;entryX=-0.012;entryY=0.504;entryDx=0;entryDy=0;entryPerimeter=0;" parent="1" target="DjzMqCNCpp32R4Y7mPO1-57" edge="1">
                    <mxGeometry width="50" height="50" relative="1" as="geometry">
                        <mxPoint x="1898" y="802" as="sourcePoint"/>
                        <mxPoint x="2038" y="832" as="targetPoint"/>
                    </mxGeometry>
                </mxCell>
                <mxCell id="DjzMqCNCpp32R4Y7mPO1-40" value="" style="verticalLabelPosition=bottom;align=center;html=1;verticalAlign=top;pointerEvents=1;dashed=0;shape=mxgraph.pid2valves.valve;valveType=ball" parent="1" vertex="1">
                    <mxGeometry x="1490" y="1160" width="30" height="20" as="geometry"/>
                </mxCell>
                <mxCell id="Fisk6T6DbjHirBb1iTBB-13" style="edgeStyle=orthogonalEdgeStyle;rounded=0;orthogonalLoop=1;jettySize=auto;html=1;" parent="1" target="Fisk6T6DbjHirBb1iTBB-15" edge="1">
                    <mxGeometry relative="1" as="geometry">
                        <Array as="points">
                            <mxPoint x="1928" y="1118"/>
                            <mxPoint x="1928" y="1118"/>
                        </Array>
                        <mxPoint x="1888" y="1118" as="sourcePoint"/>
                    </mxGeometry>
                </mxCell>
                <mxCell id="Fisk6T6DbjHirBb1iTBB-15" value="" style="verticalLabelPosition=bottom;outlineConnect=0;align=center;dashed=0;html=1;verticalAlign=top;shape=mxgraph.pid.compressors.centrifugal_compressor" parent="1" vertex="1">
                    <mxGeometry x="1948" y="1098" width="40" height="40" as="geometry"/>
                </mxCell>
                <mxCell id="Fisk6T6DbjHirBb1iTBB-34" style="edgeStyle=orthogonalEdgeStyle;rounded=0;orthogonalLoop=1;jettySize=auto;html=1;exitX=0.45;exitY=0;exitDx=0;exitDy=0;exitPerimeter=0;" parent="1" source="Fisk6T6DbjHirBb1iTBB-16" target="DjzMqCNCpp32R4Y7mPO1-32" edge="1">
                    <mxGeometry relative="1" as="geometry">
                        <Array as="points">
                            <mxPoint x="1860" y="1040"/>
                        </Array>
                    </mxGeometry>
                </mxCell>
                <mxCell id="Fisk6T6DbjHirBb1iTBB-16" value="" style="shape=mxgraph.pid.heat_exchangers.reboiler;html=1;pointerEvents=1;align=center;verticalLabelPosition=bottom;verticalAlign=top;dashed=0;" parent="1" vertex="1">
                    <mxGeometry x="1810" y="1093" width="110" height="50" as="geometry"/>
                </mxCell>
                <mxCell id="Fisk6T6DbjHirBb1iTBB-17" style="edgeStyle=orthogonalEdgeStyle;rounded=0;orthogonalLoop=1;jettySize=auto;html=1;entryX=0;entryY=0.682;entryDx=0;entryDy=0;entryPerimeter=0;exitX=0.876;exitY=0.5;exitDx=0;exitDy=0;exitPerimeter=0;" parent="1" target="Fisk6T6DbjHirBb1iTBB-16" edge="1">
                    <mxGeometry relative="1" as="geometry">
                        <mxPoint x="1798" y="1256" as="targetPoint"/>
                        <mxPoint x="1772.56" y="1128" as="sourcePoint"/>
                        <Array as="points">
                            <mxPoint x="1773" y="1127"/>
                        </Array>
                    </mxGeometry>
                </mxCell>
                <mxCell id="Fisk6T6DbjHirBb1iTBB-19" value="" style="verticalLabelPosition=bottom;align=center;html=1;verticalAlign=top;pointerEvents=1;dashed=0;shape=mxgraph.pid2valves.valve;valveType=ball;rotation=0;" parent="1" vertex="1">
                    <mxGeometry x="1760" y="1082" width="30" height="20" as="geometry"/>
                </mxCell>
                <mxCell id="Fisk6T6DbjHirBb1iTBB-21" value="" style="shape=mxgraph.pid.heat_exchangers.heater;html=1;pointerEvents=1;align=center;verticalLabelPosition=bottom;verticalAlign=top;dashed=0;" parent="1" vertex="1">
                    <mxGeometry x="1720" y="1098" width="60" height="60" as="geometry"/>
                </mxCell>
                <mxCell id="Fisk6T6DbjHirBb1iTBB-24" style="edgeStyle=orthogonalEdgeStyle;rounded=0;orthogonalLoop=1;jettySize=auto;html=1;entryX=0.124;entryY=0.5;entryDx=0;entryDy=0;entryPerimeter=0;" parent="1" target="Fisk6T6DbjHirBb1iTBB-21" edge="1">
                    <mxGeometry relative="1" as="geometry">
                        <mxPoint x="1693" y="1070" as="sourcePoint"/>
                        <Array as="points">
                            <mxPoint x="1693" y="1128"/>
                        </Array>
                    </mxGeometry>
                </mxCell>
                <mxCell id="Fisk6T6DbjHirBb1iTBB-25" value="&lt;font style=&quot;font-size: 20px;&quot;&gt;FC&lt;/font&gt;" style="ellipse;whiteSpace=wrap;html=1;" parent="1" vertex="1">
                    <mxGeometry x="1840" y="970" width="40" height="40" as="geometry"/>
                </mxCell>
                <mxCell id="Fisk6T6DbjHirBb1iTBB-32" value="&lt;font style=&quot;font-size: 20px;&quot;&gt;TC&lt;/font&gt;" style="ellipse;whiteSpace=wrap;html=1;" parent="1" vertex="1">
                    <mxGeometry x="1898" y="912" width="40" height="40" as="geometry"/>
                </mxCell>
                <mxCell id="Fisk6T6DbjHirBb1iTBB-36" value="&lt;font style=&quot;font-size: 20px;&quot;&gt;LS&lt;/font&gt;" style="ellipse;whiteSpace=wrap;html=1;" parent="1" vertex="1">
                    <mxGeometry x="1898" y="970" width="40" height="40" as="geometry"/>
                </mxCell>
                <mxCell id="Fisk6T6DbjHirBb1iTBB-42" value="&lt;font style=&quot;font-size: 20px;&quot;&gt;CC&lt;/font&gt;" style="ellipse;whiteSpace=wrap;html=1;" parent="1" vertex="1">
                    <mxGeometry x="1782" y="840" width="40" height="40" as="geometry"/>
                </mxCell>
                <mxCell id="Fisk6T6DbjHirBb1iTBB-48" value="" style="shape=mxgraph.pid.vessels.pressurized_vessel;html=1;pointerEvents=1;align=center;verticalLabelPosition=bottom;verticalAlign=top;dashed=0;" parent="1" vertex="1">
                    <mxGeometry x="1840" y="680" width="80" height="60" as="geometry"/>
                </mxCell>
                <mxCell id="Fisk6T6DbjHirBb1iTBB-49" style="edgeStyle=orthogonalEdgeStyle;rounded=0;orthogonalLoop=1;jettySize=auto;html=1;" parent="1" edge="1">
                    <mxGeometry relative="1" as="geometry">
                        <mxPoint x="1885" y="740" as="sourcePoint"/>
                        <Array as="points">
                            <mxPoint x="1885" y="762"/>
                        </Array>
                        <mxPoint x="1885" y="762" as="targetPoint"/>
                    </mxGeometry>
                </mxCell>
                <mxCell id="Fisk6T6DbjHirBb1iTBB-50" value="" style="shape=mxgraph.pid.heat_exchangers.condenser;html=1;pointerEvents=1;align=center;verticalLabelPosition=bottom;verticalAlign=top;dashed=0;movable=1;resizable=1;rotatable=1;deletable=1;editable=1;locked=0;connectable=1;" parent="1" vertex="1">
                    <mxGeometry x="1730" y="680" width="60" height="60" as="geometry"/>
                </mxCell>
                <mxCell id="Fisk6T6DbjHirBb1iTBB-51" style="edgeStyle=orthogonalEdgeStyle;rounded=0;orthogonalLoop=1;jettySize=auto;html=1;entryX=-0.021;entryY=0.494;entryDx=0;entryDy=0;entryPerimeter=0;" parent="1" source="Fisk6T6DbjHirBb1iTBB-50" target="Fisk6T6DbjHirBb1iTBB-48" edge="1">
                    <mxGeometry relative="1" as="geometry"/>
                </mxCell>
                <mxCell id="Fisk6T6DbjHirBb1iTBB-52" value="&lt;span style=&quot;font-size: 20px;&quot;&gt;PC&lt;/span&gt;" style="ellipse;whiteSpace=wrap;html=1;" parent="1" vertex="1">
                    <mxGeometry x="1940" y="630" width="40" height="40" as="geometry"/>
                </mxCell>
                <mxCell id="Fisk6T6DbjHirBb1iTBB-53" value="" style="verticalLabelPosition=bottom;align=center;html=1;verticalAlign=top;pointerEvents=1;dashed=0;shape=mxgraph.pid2valves.valve;valveType=ball" parent="1" vertex="1">
                    <mxGeometry x="1820" y="640" width="30" height="20" as="geometry"/>
                </mxCell>
                <mxCell id="Fisk6T6DbjHirBb1iTBB-56" style="edgeStyle=orthogonalEdgeStyle;rounded=0;orthogonalLoop=1;jettySize=auto;html=1;entryX=0.5;entryY=0.124;entryDx=0;entryDy=0;entryPerimeter=0;" parent="1" source="Fisk6T6DbjHirBb1iTBB-53" target="Fisk6T6DbjHirBb1iTBB-50" edge="1">
                    <mxGeometry relative="1" as="geometry"/>
                </mxCell>
                <mxCell id="Fisk6T6DbjHirBb1iTBB-57" style="edgeStyle=orthogonalEdgeStyle;rounded=0;orthogonalLoop=1;jettySize=auto;html=1;entryX=0.124;entryY=0.5;entryDx=0;entryDy=0;entryPerimeter=0;" parent="1" source="DjzMqCNCpp32R4Y7mPO1-32" target="Fisk6T6DbjHirBb1iTBB-50" edge="1">
                    <mxGeometry relative="1" as="geometry">
                        <Array as="points">
                            <mxPoint x="1693" y="710"/>
                        </Array>
                    </mxGeometry>
                </mxCell>
                <mxCell id="Fisk6T6DbjHirBb1iTBB-58" value="&lt;span style=&quot;font-size: 20px;&quot;&gt;LC&lt;/span&gt;" style="ellipse;whiteSpace=wrap;html=1;" parent="1" vertex="1">
                    <mxGeometry x="1953" y="722" width="40" height="40" as="geometry"/>
                </mxCell>
                <mxCell id="Fisk6T6DbjHirBb1iTBB-99" style="edgeStyle=orthogonalEdgeStyle;rounded=0;orthogonalLoop=1;jettySize=auto;html=1;entryX=0.484;entryY=0.061;entryDx=0;entryDy=0;entryPerimeter=0;" parent="1" source="5cSPQk3kY59FuRHNvhS5-2" target="DjzMqCNCpp32R4Y7mPO1-43" edge="1">
                    <mxGeometry relative="1" as="geometry">
                        <Array as="points"/>
                    </mxGeometry>
                </mxCell>
                <mxCell id="Fisk6T6DbjHirBb1iTBB-45" value="" style="edgeStyle=elbowEdgeStyle;endArrow=classic;html=1;rounded=0;endSize=8;startSize=8;sourcePerimeterSpacing=0;targetPerimeterSpacing=0;dashed=1;strokeColor=#FF0000;strokeWidth=2;elbow=vertical;entryX=1;entryY=0.5;entryDx=0;entryDy=0;" parent="1" edge="1" target="Fisk6T6DbjHirBb1iTBB-42">
                    <mxGeometry width="100" relative="1" as="geometry">
                        <mxPoint x="2010" y="800" as="sourcePoint"/>
                        <mxPoint x="1910" y="880" as="targetPoint"/>
                        <Array as="points">
                            <mxPoint x="1910" y="860"/>
                            <mxPoint x="2020" y="830"/>
                        </Array>
                    </mxGeometry>
                </mxCell>
                <mxCell id="Fisk6T6DbjHirBb1iTBB-37" style="edgeStyle=orthogonalEdgeStyle;rounded=0;orthogonalLoop=1;jettySize=auto;html=1;entryX=0.5;entryY=0;entryDx=0;entryDy=0;dashed=1;strokeColor=#FF0000;strokeWidth=2;" parent="1" source="Fisk6T6DbjHirBb1iTBB-32" target="Fisk6T6DbjHirBb1iTBB-36" edge="1">
                    <mxGeometry relative="1" as="geometry"/>
                </mxCell>
                <mxCell id="Fisk6T6DbjHirBb1iTBB-38" style="edgeStyle=orthogonalEdgeStyle;rounded=0;orthogonalLoop=1;jettySize=auto;html=1;entryX=1;entryY=0.5;entryDx=0;entryDy=0;dashed=1;strokeColor=#FF0000;strokeWidth=2;" parent="1" source="Fisk6T6DbjHirBb1iTBB-36" target="Fisk6T6DbjHirBb1iTBB-25" edge="1">
                    <mxGeometry relative="1" as="geometry"/>
                </mxCell>
                <mxCell id="Fisk6T6DbjHirBb1iTBB-43" style="edgeStyle=orthogonalEdgeStyle;rounded=0;orthogonalLoop=1;jettySize=auto;html=1;dashed=1;strokeColor=#FF0000;strokeWidth=2;" parent="1" source="Fisk6T6DbjHirBb1iTBB-42" edge="1">
                    <mxGeometry relative="1" as="geometry">
                        <mxPoint x="1802" y="810" as="targetPoint"/>
                    </mxGeometry>
                </mxCell>
                <mxCell id="Fisk6T6DbjHirBb1iTBB-59" style="edgeStyle=orthogonalEdgeStyle;rounded=0;orthogonalLoop=1;jettySize=auto;html=1;entryX=0;entryY=0.5;entryDx=0;entryDy=0;dashed=1;strokeColor=#FF0000;strokeWidth=2;" parent="1" source="Fisk6T6DbjHirBb1iTBB-48" target="Fisk6T6DbjHirBb1iTBB-58" edge="1">
                    <mxGeometry relative="1" as="geometry"/>
                </mxCell>
                <mxCell id="Fisk6T6DbjHirBb1iTBB-54" style="edgeStyle=orthogonalEdgeStyle;rounded=0;orthogonalLoop=1;jettySize=auto;html=1;entryX=0.5;entryY=1;entryDx=0;entryDy=0;dashed=1;strokeColor=#FF0000;strokeWidth=2;" parent="1" source="Fisk6T6DbjHirBb1iTBB-48" target="Fisk6T6DbjHirBb1iTBB-52" edge="1">
                    <mxGeometry relative="1" as="geometry"/>
                </mxCell>
                <mxCell id="Fisk6T6DbjHirBb1iTBB-55" style="edgeStyle=orthogonalEdgeStyle;rounded=0;orthogonalLoop=1;jettySize=auto;html=1;entryX=0.5;entryY=0;entryDx=0;entryDy=0;entryPerimeter=0;dashed=1;strokeColor=#FF0000;strokeWidth=2;" parent="1" source="Fisk6T6DbjHirBb1iTBB-52" target="Fisk6T6DbjHirBb1iTBB-53" edge="1">
                    <mxGeometry relative="1" as="geometry">
                        <Array as="points">
                            <mxPoint x="1960" y="620"/>
                            <mxPoint x="1835" y="620"/>
                        </Array>
                    </mxGeometry>
                </mxCell>
                <mxCell id="Fisk6T6DbjHirBb1iTBB-60" style="edgeStyle=orthogonalEdgeStyle;rounded=0;orthogonalLoop=1;jettySize=auto;html=1;entryX=0.492;entryY=0.25;entryDx=0;entryDy=0;entryPerimeter=0;dashed=1;strokeColor=#FF0000;strokeWidth=2;" parent="1" source="Fisk6T6DbjHirBb1iTBB-58" target="DjzMqCNCpp32R4Y7mPO1-57" edge="1">
                    <mxGeometry relative="1" as="geometry"/>
                </mxCell>
                <mxCell id="raOoSxsyEfahjdPdxXgE-11" style="edgeStyle=elbowEdgeStyle;rounded=0;orthogonalLoop=1;jettySize=auto;html=1;dashed=1;fillColor=#f8cecc;strokeColor=#FF0000;endSize=6;elbow=vertical;entryX=0;entryY=0.5;entryDx=0;entryDy=0;strokeWidth=2;" parent="1" target="raOoSxsyEfahjdPdxXgE-8" edge="1">
                    <mxGeometry relative="1" as="geometry">
                        <mxPoint x="700" y="760" as="sourcePoint"/>
                        <mxPoint x="700" y="830" as="targetPoint"/>
                        <Array as="points">
                            <mxPoint x="720" y="822"/>
                        </Array>
                    </mxGeometry>
                </mxCell>
                <mxCell id="Fisk6T6DbjHirBb1iTBB-75" style="edgeStyle=orthogonalEdgeStyle;rounded=0;orthogonalLoop=1;jettySize=auto;html=1;entryX=0;entryY=0.5;entryDx=0;entryDy=0;exitX=0.73;exitY=0.212;exitDx=0;exitDy=0;exitPerimeter=0;dashed=1;endSize=6;curved=0;strokeColor=#FF0000;strokeWidth=2;" parent="1" source="9" target="raOoSxsyEfahjdPdxXgE-34" edge="1">
                    <mxGeometry relative="1" as="geometry">
                        <Array as="points">
                            <mxPoint x="603" y="645"/>
                            <mxPoint x="640" y="645"/>
                        </Array>
                        <mxPoint x="639.5500000000002" y="731.385" as="sourcePoint"/>
                    </mxGeometry>
                </mxCell>
                <mxCell id="raOoSxsyEfahjdPdxXgE-17" style="edgeStyle=orthogonalEdgeStyle;rounded=0;orthogonalLoop=1;jettySize=auto;html=1;entryX=1;entryY=0.5;entryDx=0;entryDy=0;dashed=1;fillColor=#f8cecc;strokeColor=#FF0000;endSize=6;curved=0;strokeWidth=2;exitX=0.091;exitY=0.429;exitDx=0;exitDy=0;exitPerimeter=0;" parent="1" source="10" target="raOoSxsyEfahjdPdxXgE-10" edge="1">
                    <mxGeometry relative="1" as="geometry">
                        <Array as="points">
                            <mxPoint x="836" y="780"/>
                            <mxPoint x="836" y="910"/>
                        </Array>
                        <mxPoint x="878" y="780" as="sourcePoint"/>
                    </mxGeometry>
                </mxCell>
                <mxCell id="raOoSxsyEfahjdPdxXgE-19" style="edgeStyle=orthogonalEdgeStyle;rounded=0;orthogonalLoop=1;jettySize=auto;html=1;entryX=0.5;entryY=1;entryDx=0;entryDy=0;dashed=1;fillColor=#f8cecc;strokeColor=#FF0000;endSize=6;curved=0;strokeWidth=2;" parent="1" target="raOoSxsyEfahjdPdxXgE-9" edge="1">
                    <mxGeometry relative="1" as="geometry">
                        <mxPoint x="655" y="960" as="targetPoint"/>
                        <Array as="points">
                            <mxPoint x="1080" y="980"/>
                            <mxPoint x="690" y="980"/>
                        </Array>
                        <mxPoint x="1080" y="760" as="sourcePoint"/>
                    </mxGeometry>
                </mxCell>
                <mxCell id="Fisk6T6DbjHirBb1iTBB-91" style="edgeStyle=orthogonalEdgeStyle;rounded=0;orthogonalLoop=1;jettySize=auto;html=1;entryX=1;entryY=0.5;entryDx=0;entryDy=0;dashed=1;endSize=6;curved=0;strokeColor=#FF0000;strokeWidth=2;" parent="1" target="raOoSxsyEfahjdPdxXgE-28" edge="1">
                    <mxGeometry relative="1" as="geometry">
                        <Array as="points">
                            <mxPoint x="850" y="710"/>
                            <mxPoint x="850" y="360"/>
                        </Array>
                        <mxPoint x="850" y="710" as="sourcePoint"/>
                    </mxGeometry>
                </mxCell>
                <mxCell id="raOoSxsyEfahjdPdxXgE-5" style="edgeStyle=orthogonalEdgeStyle;rounded=0;orthogonalLoop=1;jettySize=auto;html=1;entryX=1.031;entryY=0.797;entryDx=0;entryDy=0;entryPerimeter=0;endSize=6;curved=0;strokeWidth=2;" parent="1" source="raOoSxsyEfahjdPdxXgE-6" target="9" edge="1">
                    <mxGeometry relative="1" as="geometry">
                        <mxPoint x="661.3000000000002" y="739.5749999999998" as="targetPoint"/>
                    </mxGeometry>
                </mxCell>
                <mxCell id="raOoSxsyEfahjdPdxXgE-7" value="" style="endArrow=classic;html=1;rounded=0;endSize=6;curved=0;strokeWidth=2;" parent="1" edge="1">
                    <mxGeometry width="50" height="50" relative="1" as="geometry">
                        <mxPoint x="760" y="692" as="sourcePoint"/>
                        <mxPoint x="730" y="692" as="targetPoint"/>
                    </mxGeometry>
                </mxCell>
                <mxCell id="raOoSxsyEfahjdPdxXgE-15" style="edgeStyle=orthogonalEdgeStyle;rounded=0;orthogonalLoop=1;jettySize=auto;html=1;entryX=0.5;entryY=1;entryDx=0;entryDy=0;dashed=1;fillColor=#f8cecc;strokeColor=#FF0000;endSize=6;curved=0;strokeWidth=2;" parent="1" source="raOoSxsyEfahjdPdxXgE-9" target="raOoSxsyEfahjdPdxXgE-8" edge="1">
                    <mxGeometry relative="1" as="geometry">
                        <Array as="points">
                            <mxPoint x="690" y="880"/>
                            <mxPoint x="763" y="880"/>
                        </Array>
                    </mxGeometry>
                </mxCell>
                <mxCell id="Fisk6T6DbjHirBb1iTBB-92" style="edgeStyle=orthogonalEdgeStyle;rounded=0;orthogonalLoop=1;jettySize=auto;html=1;entryX=0.5;entryY=0;entryDx=0;entryDy=0;dashed=1;endSize=6;curved=0;strokeColor=#FF0000;" parent="1" source="raOoSxsyEfahjdPdxXgE-28" target="raOoSxsyEfahjdPdxXgE-29" edge="1">
                    <mxGeometry relative="1" as="geometry"/>
                </mxCell>
                <mxCell id="Fisk6T6DbjHirBb1iTBB-11" style="edgeStyle=orthogonalEdgeStyle;rounded=0;orthogonalLoop=1;jettySize=auto;html=1;dashed=1;endSize=6;curved=0;strokeColor=#FF0000;strokeWidth=2;" parent="1" source="Fisk6T6DbjHirBb1iTBB-10" target="DjzMqCNCpp32R4Y7mPO1-40" edge="1">
                    <mxGeometry relative="1" as="geometry"/>
                </mxCell>
                <mxCell id="Fisk6T6DbjHirBb1iTBB-66" value="" style="edgeStyle=segmentEdgeStyle;endArrow=classic;html=1;curved=0;rounded=0;endSize=6;startSize=8;sourcePerimeterSpacing=0;targetPerimeterSpacing=0;entryX=0.5;entryY=1;entryDx=0;entryDy=0;dashed=1;strokeColor=#FF0000;strokeWidth=2;" parent="1" target="raOoSxsyEfahjdPdxXgE-27" edge="1">
                    <mxGeometry width="100" relative="1" as="geometry">
                        <mxPoint x="860" y="1070" as="sourcePoint"/>
                        <mxPoint x="640" y="1040" as="targetPoint"/>
                        <Array as="points">
                            <mxPoint x="413" y="1070"/>
                        </Array>
                    </mxGeometry>
                </mxCell>
                <mxCell id="Fisk6T6DbjHirBb1iTBB-67" style="edgeStyle=orthogonalEdgeStyle;rounded=0;orthogonalLoop=1;jettySize=auto;html=1;entryX=0.5;entryY=0.9;entryDx=0;entryDy=0;entryPerimeter=0;dashed=1;endSize=6;curved=0;strokeColor=#FF0000;strokeWidth=2;" parent="1" source="raOoSxsyEfahjdPdxXgE-27" target="DjzMqCNCpp32R4Y7mPO1-108" edge="1">
                    <mxGeometry relative="1" as="geometry"/>
                </mxCell>
                <mxCell id="Fisk6T6DbjHirBb1iTBB-80" style="edgeStyle=orthogonalEdgeStyle;rounded=0;orthogonalLoop=1;jettySize=auto;html=1;entryX=0;entryY=0.5;entryDx=0;entryDy=0;dashed=1;endSize=6;curved=0;strokeColor=#FF0000;strokeWidth=2;" parent="1" source="5cSPQk3kY59FuRHNvhS5-1" target="raOoSxsyEfahjdPdxXgE-30" edge="1">
                    <mxGeometry relative="1" as="geometry">
                        <Array as="points">
                            <mxPoint x="1158" y="472"/>
                        </Array>
                    </mxGeometry>
                </mxCell>
                <mxCell id="Fisk6T6DbjHirBb1iTBB-83" style="edgeStyle=orthogonalEdgeStyle;rounded=0;orthogonalLoop=1;jettySize=auto;html=1;entryX=0.5;entryY=0;entryDx=0;entryDy=0;dashed=1;endSize=6;curved=0;strokeColor=#FF0000;strokeWidth=2;" parent="1" target="raOoSxsyEfahjdPdxXgE-32" edge="1">
                    <mxGeometry relative="1" as="geometry">
                        <Array as="points">
                            <mxPoint x="1770" y="750"/>
                            <mxPoint x="1710" y="750"/>
                            <mxPoint x="1710" y="280"/>
                            <mxPoint x="1123" y="280"/>
                        </Array>
                        <mxPoint x="1770" y="800" as="sourcePoint"/>
                    </mxGeometry>
                </mxCell>
                <mxCell id="Fisk6T6DbjHirBb1iTBB-79" style="edgeStyle=orthogonalEdgeStyle;rounded=0;orthogonalLoop=1;jettySize=auto;html=1;entryX=0.5;entryY=1;entryDx=0;entryDy=0;dashed=1;endSize=6;curved=0;strokeColor=#FF0000;strokeWidth=2;" parent="1" source="DjzMqCNCpp32R4Y7mPO1-81" target="5cSPQk3kY59FuRHNvhS5-1" edge="1">
                    <mxGeometry relative="1" as="geometry">
                        <Array as="points">
                            <mxPoint x="1158" y="762"/>
                        </Array>
                    </mxGeometry>
                </mxCell>
                <mxCell id="DjzMqCNCpp32R4Y7mPO1-76" value="" style="endArrow=classic;html=1;rounded=0;exitX=0.45;exitY=0;exitDx=0;exitDy=0;exitPerimeter=0;endSize=6;curved=0;strokeColor=#000000;" parent="1" source="DjzMqCNCpp32R4Y7mPO1-84" edge="1">
                    <mxGeometry width="50" height="50" relative="1" as="geometry">
                        <mxPoint x="1378" y="922" as="sourcePoint"/>
                        <mxPoint x="1288" y="893.27" as="targetPoint"/>
                        <Array as="points">
                            <mxPoint x="1390" y="892"/>
                        </Array>
                    </mxGeometry>
                </mxCell>
                <mxCell id="Fisk6T6DbjHirBb1iTBB-82" style="edgeStyle=orthogonalEdgeStyle;rounded=0;orthogonalLoop=1;jettySize=auto;html=1;entryX=0.5;entryY=0;entryDx=0;entryDy=0;dashed=1;endSize=6;curved=0;strokeColor=#FF0000;strokeWidth=2;" parent="1" source="raOoSxsyEfahjdPdxXgE-32" target="raOoSxsyEfahjdPdxXgE-33" edge="1">
                    <mxGeometry relative="1" as="geometry"/>
                </mxCell>
                <mxCell id="Fisk6T6DbjHirBb1iTBB-2" style="edgeStyle=orthogonalEdgeStyle;rounded=0;orthogonalLoop=1;jettySize=auto;html=1;entryX=0;entryY=0.682;entryDx=0;entryDy=0;entryPerimeter=0;exitX=0.876;exitY=0.5;exitDx=0;exitDy=0;exitPerimeter=0;endSize=6;curved=0;" parent="1" target="DjzMqCNCpp32R4Y7mPO1-84" edge="1">
                    <mxGeometry relative="1" as="geometry">
                        <mxPoint x="1328" y="1090" as="targetPoint"/>
                        <mxPoint x="1302.56" y="962" as="sourcePoint"/>
                        <Array as="points">
                            <mxPoint x="1303" y="961"/>
                        </Array>
                    </mxGeometry>
                </mxCell>
                <mxCell id="Fisk6T6DbjHirBb1iTBB-6" style="edgeStyle=orthogonalEdgeStyle;rounded=0;orthogonalLoop=1;jettySize=auto;html=1;entryX=0.124;entryY=0.5;entryDx=0;entryDy=0;entryPerimeter=0;endSize=6;curved=0;" parent="1" source="DjzMqCNCpp32R4Y7mPO1-71" edge="1">
                    <mxGeometry relative="1" as="geometry">
                        <mxPoint x="1257.44" y="962" as="targetPoint"/>
                        <Array as="points">
                            <mxPoint x="1233" y="962"/>
                        </Array>
                    </mxGeometry>
                </mxCell>
                <mxCell id="Fisk6T6DbjHirBb1iTBB-31" style="edgeStyle=orthogonalEdgeStyle;rounded=0;orthogonalLoop=1;jettySize=auto;html=1;entryX=0.5;entryY=0.298;entryDx=0;entryDy=0;entryPerimeter=0;dashed=1;endSize=6;curved=0;strokeColor=#FF0000;strokeWidth=2;" parent="1" source="Fisk6T6DbjHirBb1iTBB-7" target="Fisk6T6DbjHirBb1iTBB-29" edge="1">
                    <mxGeometry relative="1" as="geometry"/>
                </mxCell>
                <mxCell id="Fisk6T6DbjHirBb1iTBB-81" style="edgeStyle=orthogonalEdgeStyle;rounded=0;orthogonalLoop=1;jettySize=auto;html=1;entryX=0.507;entryY=0.24;entryDx=0;entryDy=0;entryPerimeter=0;dashed=1;endSize=6;curved=0;strokeColor=#FF0000;strokeWidth=2;" parent="1" source="raOoSxsyEfahjdPdxXgE-33" target="DjzMqCNCpp32R4Y7mPO1-81" edge="1">
                    <mxGeometry relative="1" as="geometry"/>
                </mxCell>
                <mxCell id="Fisk6T6DbjHirBb1iTBB-12" style="edgeStyle=orthogonalEdgeStyle;rounded=0;orthogonalLoop=1;jettySize=auto;html=1;dashed=1;endSize=6;curved=0;strokeColor=#FF0000;strokeWidth=2;" parent="1" source="DjzMqCNCpp32R4Y7mPO1-32" edge="1">
                    <mxGeometry relative="1" as="geometry">
                        <mxPoint x="1530" y="1080" as="targetPoint"/>
                        <Array as="points">
                            <mxPoint x="1585" y="1060"/>
                            <mxPoint x="1585" y="1080"/>
                        </Array>
                    </mxGeometry>
                </mxCell>
                <mxCell id="Fisk6T6DbjHirBb1iTBB-35" style="edgeStyle=orthogonalEdgeStyle;rounded=0;orthogonalLoop=1;jettySize=auto;html=1;entryX=0;entryY=0.5;entryDx=0;entryDy=0;dashed=1;endSize=6;curved=0;strokeColor=#FF0000;strokeWidth=2;" parent="1" source="DjzMqCNCpp32R4Y7mPO1-32" target="Fisk6T6DbjHirBb1iTBB-32" edge="1">
                    <mxGeometry relative="1" as="geometry"/>
                </mxCell>
                <mxCell id="Fisk6T6DbjHirBb1iTBB-33" style="edgeStyle=elbowEdgeStyle;rounded=0;orthogonalLoop=1;jettySize=auto;html=1;entryX=0.5;entryY=1;entryDx=0;entryDy=0;dashed=1;endSize=6;strokeColor=#FF0000;strokeWidth=2;elbow=vertical;" parent="1" target="Fisk6T6DbjHirBb1iTBB-25" edge="1">
                    <mxGeometry relative="1" as="geometry">
                        <mxPoint x="1860" y="1040" as="sourcePoint"/>
                    </mxGeometry>
                </mxCell>
                <mxCell id="Fisk6T6DbjHirBb1iTBB-27" style="edgeStyle=orthogonalEdgeStyle;rounded=0;orthogonalLoop=1;jettySize=auto;html=1;entryX=0.973;entryY=0.49;entryDx=0;entryDy=0;entryPerimeter=0;dashed=1;endSize=6;curved=0;strokeColor=#FF0000;strokeWidth=2;" parent="1" source="Fisk6T6DbjHirBb1iTBB-25" target="Fisk6T6DbjHirBb1iTBB-19" edge="1">
                    <mxGeometry relative="1" as="geometry">
                        <mxPoint x="1820" y="1060" as="targetPoint"/>
                    </mxGeometry>
                </mxCell>
                <mxCell id="Fisk6T6DbjHirBb1iTBB-93" style="edgeStyle=orthogonalEdgeStyle;rounded=0;orthogonalLoop=1;jettySize=auto;html=1;entryX=0.5;entryY=0.4;entryDx=0;entryDy=0;entryPerimeter=0;dashed=1;endSize=6;curved=0;strokeColor=#FF0000;" parent="1" source="raOoSxsyEfahjdPdxXgE-29" target="DjzMqCNCpp32R4Y7mPO1-104" edge="1">
                    <mxGeometry relative="1" as="geometry"/>
                </mxCell>
                <mxCell id="5cSPQk3kY59FuRHNvhS5-2" value="&lt;font style=&quot;font-size: 20px;&quot;&gt;LC&lt;/font&gt;" style="ellipse;whiteSpace=wrap;html=1;" parent="1" vertex="1">
                    <mxGeometry x="1563" y="840" width="40" height="40" as="geometry"/>
                </mxCell>
                <mxCell id="6" style="edgeStyle=orthogonalEdgeStyle;rounded=0;orthogonalLoop=1;jettySize=auto;html=1;entryX=0;entryY=0.5;entryDx=0;entryDy=0;dashed=1;endSize=6;curved=0;strokeColor=#FF0000;strokeWidth=2;" edge="1" parent="1">
                    <mxGeometry relative="1" as="geometry">
                        <Array as="points">
                            <mxPoint x="350" y="361.97"/>
                        </Array>
                        <mxPoint x="350" y="681.97" as="sourcePoint"/>
                        <mxPoint x="393" y="361.97" as="targetPoint"/>
                    </mxGeometry>
                </mxCell>
                <mxCell id="7" style="edgeStyle=elbowEdgeStyle;rounded=0;orthogonalLoop=1;jettySize=auto;html=1;entryX=0.5;entryY=1;entryDx=0;entryDy=0;dashed=1;endSize=6;strokeColor=#FF0000;elbow=vertical;exitX=-0.005;exitY=0.585;exitDx=0;exitDy=0;exitPerimeter=0;strokeWidth=2;" edge="1" parent="1">
                    <mxGeometry relative="1" as="geometry">
                        <mxPoint x="507.25" y="778.5749999999998" as="sourcePoint"/>
                        <Array as="points">
                            <mxPoint x="450" y="780"/>
                        </Array>
                        <mxPoint x="350" y="721.97" as="targetPoint"/>
                    </mxGeometry>
                </mxCell>
                <mxCell id="9" value="" style="shape=mxgraph.pid.vessels.jacketed_mixing_vessel;html=1;pointerEvents=1;align=center;verticalLabelPosition=bottom;verticalAlign=top;dashed=0;" vertex="1" parent="1">
                    <mxGeometry x="508" y="632" width="130" height="210" as="geometry"/>
                </mxCell>
                <mxCell id="10" value="" style="shape=mxgraph.pid.vessels.jacketed_mixing_vessel;html=1;pointerEvents=1;align=center;verticalLabelPosition=bottom;verticalAlign=top;dashed=0;" vertex="1" parent="1">
                    <mxGeometry x="890" y="690" width="130" height="210" as="geometry"/>
                </mxCell>
            </root>
        </mxGraphModel>
    </diagram>
</mxfile>